HIERARCHY
ROOT Hips
{
	OFFSET 0.000000 0.000000 0.000000
	CHANNELS 6 Xposition Yposition Zposition Xrotation Yrotation Zrotation
	JOINT LeftUpLeg_virtual
	{
		OFFSET 0.000000 0.000000 0.000000
		CHANNELS 3 Xrotation Yrotation Zrotation
		JOINT LeftUpLeg
		{
			OFFSET 13.026900 -6.336304 -1.092800
			CHANNELS 3 Xrotation Yrotation Zrotation
			JOINT LeftLeg
			{
				OFFSET 0.524474 -46.096886 9.782700
				CHANNELS 3 Xrotation Yrotation Zrotation
				JOINT LeftFoot
				{
					OFFSET -0.524474 -53.427422 -12.948200
					CHANNELS 3 Xrotation Yrotation Zrotation
					JOINT LeftToeBase
					{
						OFFSET 0.192200 -14.009700 16.364100
						CHANNELS 3 Xrotation Yrotation Zrotation
						JOINT LeftToe_End
						{
							OFFSET -1.784700 -0.561700 9.474800
							CHANNELS 3 Xrotation Yrotation Zrotation
							End Site
							{
								OFFSET 0 0 0
							}
						}
					}
				}
			}
		}
	}
	JOINT RightUpLeg_virtual
	{
		OFFSET 0.000000 0.000000 0.000000
		CHANNELS 3 Xrotation Yrotation Zrotation
		JOINT RightUpLeg
		{
			OFFSET -12.883000 -6.336304 -1.092800
			CHANNELS 3 Xrotation Yrotation Zrotation
			JOINT RightLeg
			{
				OFFSET -0.524587 -46.096825 9.782800
				CHANNELS 3 Xrotation Yrotation Zrotation
				JOINT RightFoot
				{
					OFFSET 0.524587 -53.427383 -12.948300
					CHANNELS 3 Xrotation Yrotation Zrotation
					JOINT RightToeBase
					{
						OFFSET -0.192200 -14.009700 16.364100
						CHANNELS 3 Xrotation Yrotation Zrotation
						JOINT RightToe_End
						{
							OFFSET 1.784700 -0.561700 9.474800
							CHANNELS 3 Xrotation Yrotation Zrotation
							End Site
							{
								OFFSET 0 0 0
							}
						}
					}
				}
			}
		}
	}
	JOINT Spine_virtual
	{
		OFFSET 0.000000 0.000000 0.000000
		CHANNELS 3 Xrotation Yrotation Zrotation
		JOINT Spine
		{
			OFFSET 0.072000 7.257294 -0.789700
			CHANNELS 3 Xrotation Yrotation Zrotation
			JOINT Spine1
			{
				OFFSET 0.000000 12.508769 -0.658067
				CHANNELS 3 Xrotation Yrotation Zrotation
				JOINT Spine1_split
				{
					OFFSET 0.000000 12.508769 -0.658067
					CHANNELS 3 Xrotation Yrotation Zrotation
					JOINT Spine2
					{
						OFFSET 0.000000 12.508769 -0.658067
						CHANNELS 3 Xrotation Yrotation Zrotation
						JOINT Neck_virtual
						{
							OFFSET 0.000000 0.000000 0.000000
							CHANNELS 3 Xrotation Yrotation Zrotation
							JOINT Neck
							{
								OFFSET 0.000000 14.033295 7.520400
								CHANNELS 3 Xrotation Yrotation Zrotation
								JOINT Head
								{
									OFFSET 0.000000 8.198502 5.703100
									CHANNELS 3 Xrotation Yrotation Zrotation
									JOINT HeadTop_End
									{
										OFFSET 0.000000 17.760803 13.332701
										CHANNELS 3 Xrotation Yrotation Zrotation
										End Site
										{
											OFFSET 0 0 0
										}
									}
								}
							}
						}
						JOINT LeftShoulder_virtual
						{
							OFFSET 0.000000 0.000000 0.000000
							CHANNELS 3 Xrotation Yrotation Zrotation
							JOINT LeftShoulder
							{
								OFFSET 6.292450 5.785301 -0.669000
								CHANNELS 3 Xrotation Yrotation Zrotation
								JOINT LeftShoulder_split
								{
									OFFSET 6.292450 5.785301 -0.669000
									CHANNELS 3 Xrotation Yrotation Zrotation
									JOINT LeftArm
									{
										OFFSET 13.907140 -6.093903 1.965100
										CHANNELS 3 Xrotation Yrotation Zrotation
										JOINT LeftForeArm
										{
											OFFSET 34.140198 0.000000 0.000000
											CHANNELS 3 Xrotation Yrotation Zrotation
											JOINT LeftHand
											{
												OFFSET 40.960209 0.000000 0.000000
												CHANNELS 3 Xrotation Yrotation Zrotation
												End Site
												{
													OFFSET 0 0 0
												}
											}
										}
									}
								}
							}
						}
						JOINT RightShoulder_virtual
						{
							OFFSET 0.000000 0.000000 0.000000
							CHANNELS 3 Xrotation Yrotation Zrotation
							JOINT RightShoulder
							{
								OFFSET -6.292450 5.785301 -0.669000
								CHANNELS 3 Xrotation Yrotation Zrotation
								JOINT RightShoulder_split
								{
									OFFSET -6.292450 5.785301 -0.669000
									CHANNELS 3 Xrotation Yrotation Zrotation
									JOINT RightArm
									{
										OFFSET -13.907140 -6.093903 1.965100
										CHANNELS 3 Xrotation Yrotation Zrotation
										JOINT RightForeArm
										{
											OFFSET -34.140198 0.000000 0.000000
											CHANNELS 3 Xrotation Yrotation Zrotation
											JOINT RightHand
											{
												OFFSET -40.960209 0.000000 0.000000
												CHANNELS 3 Xrotation Yrotation Zrotation
												End Site
												{
													OFFSET 0 0 0
												}
											}
										}
									}
								}
							}
						}
					}
				}
			}
		}
	}
}
MOTION
Frames: 8
Frame Time: 0.03333333
3.102691 91.714523 2.719391 0.000000 0.000000 0.000000 -3.113406 -38.460020 1.084986 -37.534283 5.729926 16.608606 52.967267 -2.275195 3.604624 -14.402495 -6.596248 -13.797519 -1.262009 0.643807 -0.011773 0.000000 0.000000 0.000000 -4.485063 -38.997279 1.572422 -20.992221 -12.510854 -30.543564 47.713915 1.138517 -5.475699 -14.399015 -6.810684 32.324540 -0.905053 0.248818 -0.965673 0.000000 0.000000 0.000000 -1.050572 -41.556578 1.541487 11.309087 7.877746 -2.745851 1.032533 1.855419 -1.578245 2.153394 -3.950167 -0.739786 0.000000 0.000000 0.000000 1.047630 1.794128 -0.625320 -0.817672 8.296387 4.806361 10.222157 7.193582 -4.598081 0.000000 0.000000 0.000000 1.479418 1.326542 -1.955027 1.471640 0.078817 -1.741598 -7.192586 2.102064 -5.912540 -45.826259 -5.996924 -48.312547 -167.622924 -77.197250 -165.404424 0.000000 0.000000 0.000000 2.146238 2.685472 0.312320 6.877697 11.290069 -11.026120 5.005245 13.261300 2.066015 -48.437823 33.037120 85.455625 177.350165 67.823430 -179.836736 0.000000 0.000000 0.000000 
3.248740 91.864716 1.772297 0.000000 0.000000 0.000000 -4.130399 -38.760938 1.519043 -36.373619 6.352248 15.769691 53.032054 -2.280986 3.364995 -14.059548 -5.930938 -13.040034 -1.550845 0.590417 0.003948 0.000000 0.000000 0.000000 -5.699322 -39.820375 1.695556 -21.613140 -12.686854 -31.156649 49.970688 0.519434 -5.219378 -14.924788 -7.624935 30.635584 1.164033 0.216907 -0.990571 0.000000 0.000000 0.000000 -3.215208 -43.098183 1.485105 10.115029 8.198904 -2.259112 0.967005 2.354616 -1.698713 0.412749 -2.689906 -0.584865 0.000000 0.000000 0.000000 1.512427 2.286212 -0.970179 0.633037 7.796756 5.128023 8.751484 8.595065 -5.545762 0.000000 0.000000 0.000000 2.153409 1.886518 -1.851703 1.388895 0.302903 -1.872639 -5.078071 1.445576 -7.614963 -44.402910 -6.691023 -52.081436 -167.820125 -79.811375 -165.841446 0.000000 0.000000 0.000000 2.696188 2.924606 -0.243861 6.731258 11.813490 -8.259908 2.832178 11.128392 1.818023 -46.737461 30.448338 80.534241 179.551658 68.195833 178.865237 0.000000 0.000000 0.000000 
3.490649 92.250374 0.934162 0.000000 0.000000 0.000000 -5.661852 -39.747705 2.509219 -33.581189 7.617526 14.176320 51.723892 -2.601829 2.976621 -14.052237 -5.638058 -13.221042 -1.720932 0.468127 0.111871 0.000000 0.000000 0.000000 -7.151489 -40.925828 2.473181 -21.756651 -10.937685 -31.877203 52.678435 -0.443523 -5.133143 -15.072638 -8.815649 29.307539 0.609940 0.170474 -0.846850 0.000000 0.000000 0.000000 -5.968370 -44.321682 1.672323 8.596086 9.044615 -1.228349 1.223033 3.609742 -1.844272 -0.031746 -0.691280 0.081806 0.000000 0.000000 0.000000 2.165937 3.434995 -1.369263 2.125278 6.762944 4.560374 6.143367 10.070750 -8.097823 0.000000 0.000000 0.000000 2.844192 3.219750 -1.766693 1.086517 0.020831 -2.553422 -3.906285 -0.675846 -7.844760 -40.234575 -9.155624 -58.327903 -167.089377 -83.936960 -165.498530 0.000000 0.000000 0.000000 3.645747 3.908799 -1.012021 6.525057 12.756188 -4.259903 1.877823 9.069130 1.647920 -45.527029 26.529307 72.540543 -178.588246 68.212314 177.874956 0.000000 0.000000 0.000000 
3.768886 92.874626 0.552082 0.000000 0.000000 0.000000 -7.133060 -42.079091 3.823764 -29.640480 9.206279 12.219718 49.258027 -2.912948 2.365823 -14.361315 -5.281555 -14.278411 -1.956415 0.302393 0.311565 0.000000 0.000000 0.000000 -8.331844 -42.856179 3.817543 -21.745060 -7.544477 -32.509064 54.665129 -1.531538 -5.202578 -15.062032 -9.980049 27.911778 -1.340101 0.078980 -0.492139 0.000000 0.000000 0.000000 -8.640816 -45.981557 2.083569 7.329150 9.887598 0.369439 1.965493 5.139933 -1.844388 1.030569 0.726039 0.867177 0.000000 0.000000 0.000000 3.134825 4.812264 -1.513887 3.206375 5.569625 3.545758 2.499462 11.600097 -11.452559 0.000000 0.000000 0.000000 3.659347 4.806620 -1.528217 0.543998 -0.624730 -3.193452 -3.175586 -1.573735 -7.228036 -34.374214 -12.495545 -64.756532 -142.125431 -88.840393 -140.854483 0.000000 0.000000 0.000000 4.967936 5.150455 -1.695427 6.248697 14.142064 0.077167 1.474881 7.532668 1.865783 -46.192607 24.804406 64.449323 -178.218951 69.031643 178.197545 0.000000 0.000000 0.000000 
4.127182 93.682983 0.114662 0.000000 0.000000 0.000000 -8.142158 -46.476463 5.147775 -25.128428 10.764633 10.344673 46.079636 -2.558468 1.489751 -15.122942 -4.175710 -15.494455 -2.100442 0.115297 0.478235 0.000000 0.000000 0.000000 -8.709515 -46.531115 5.446554 -22.311131 -2.929035 -32.785707 54.953691 -2.581863 -5.247454 -14.957486 -10.319333 25.960873 -1.878343 -0.021915 0.015105 0.000000 0.000000 0.000000 -10.509373 -48.959769 2.710563 6.699059 10.181469 2.440133 3.254770 6.286921 -1.549151 1.807953 1.040288 1.298255 0.000000 0.000000 0.000000 4.570368 5.857916 -1.217107 3.417915 4.279263 2.605292 -2.333636 12.945554 -14.516537 0.000000 0.000000 0.000000 4.801134 6.044248 -0.976848 -0.176520 -1.659086 -2.886735 -2.124439 -0.471940 -6.243119 -27.683260 -15.262044 -69.739045 -6.641165 -85.468356 -5.424613 0.000000 0.000000 0.000000 6.432249 6.091552 -1.915624 5.867895 15.740183 3.831991 1.538486 6.376373 2.527850 -49.311353 28.365219 58.577478 -179.738122 71.313466 -179.907661 0.000000 0.000000 0.000000 
4.548296 94.629478 -0.116146 0.000000 0.000000 0.000000 -8.423525 -53.461021 6.272108 -20.549930 11.957603 9.020056 42.710570 -1.326903 0.498413 -16.106494 -1.886815 -16.664471 -1.904910 -0.051683 0.489697 0.000000 0.000000 0.000000 -8.166902 -52.631242 7.108860 -24.302817 2.077956 -32.387442 53.528934 -3.490731 -5.051164 -14.176349 -9.119924 23.675362 -0.191049 -0.056864 0.576972 0.000000 0.000000 0.000000 -11.146708 -53.871457 3.486979 7.127914 9.458588 4.703557 5.070371 6.596812 -0.952914 2.057479 0.224756 1.373177 0.000000 0.000000 0.000000 6.653236 6.148319 -0.478620 2.913020 2.734224 2.120148 -8.316369 13.896221 -16.523536 0.000000 0.000000 0.000000 6.520885 6.547066 -0.098443 -0.915694 -2.990198 -1.056149 -0.536537 2.174845 -5.188866 -20.984392 -16.634127 -72.909606 -4.949830 -80.221350 -3.420906 0.000000 0.000000 0.000000 8.056037 6.318436 -1.475541 5.457367 17.200356 6.409374 2.264722 5.767918 2.910035 -55.440529 38.156094 57.758190 176.701748 74.944032 -176.210958 0.000000 0.000000 0.000000 
5.015527 95.760727 -0.498081 0.000000 0.000000 0.000000 -7.364254 -62.503949 7.550124 -16.314863 12.854316 8.362928 39.520209 0.745374 -0.539031 -16.948136 1.502730 -17.647020 -1.622244 -0.198709 0.383087 0.000000 0.000000 0.000000 -6.341775 -60.937636 8.958486 -27.784371 6.636945 -30.976195 50.761570 -3.901668 -4.692474 -12.121998 -5.986135 21.887290 1.670601 0.038399 0.879593 0.000000 0.000000 0.000000 -10.062842 -60.780371 4.715826 8.657697 7.811911 7.094943 7.421158 5.990162 -0.062817 1.516156 -0.112850 1.363890 0.000000 0.000000 0.000000 9.249301 5.636226 0.544747 2.188278 1.103720 2.239161 -15.197335 14.370911 -17.010270 0.000000 0.000000 0.000000 8.996868 6.182646 1.051747 -1.431012 -4.536815 2.157389 0.904455 5.079299 -4.581298 -13.872474 -17.234140 -74.964646 -5.386287 -76.183793 -3.456549 0.000000 0.000000 0.000000 9.899907 5.669454 -0.542175 5.138510 18.264739 8.059550 2.719682 5.584122 2.675992 -66.724473 51.749294 64.979913 171.186698 79.061086 -170.640911 0.000000 0.000000 0.000000 
5.467723 96.968704 -1.044983 0.000000 0.000000 0.000000 -4.288467 -72.323282 9.956456 -12.426139 13.593832 8.190927 36.564851 3.389722 -1.450680 -17.560398 5.491283 -18.335503 -1.788635 -0.333546 0.301902 0.000000 0.000000 0.000000 -2.419208 -70.613603 12.084813 -32.216804 10.399646 -28.285736 47.071669 -3.570676 -4.342038 -9.079802 -0.900642 21.120728 2.053783 0.249137 0.788766 0.000000 0.000000 0.000000 -6.262031 -69.045365 7.402419 11.239342 5.401312 9.360764 10.133613 4.664423 0.948013 0.395338 -0.413906 0.929919 0.000000 0.000000 0.000000 12.285272 4.423000 1.588767 1.745936 -0.586596 2.843013 -22.356420 14.261829 -15.985434 0.000000 0.000000 0.000000 12.008685 5.067216 2.221877 -1.588008 -6.398941 6.125236 1.713988 7.281175 -3.931736 -5.875535 -18.107272 -76.769202 -4.855923 -74.155459 -2.742667 0.000000 0.000000 0.000000 12.139113 4.323628 0.580226 5.021039 18.828735 8.992573 3.169113 5.309461 1.480374 -88.432980 62.514508 84.603900 167.643482 81.863922 -166.995093 0.000000 0.000000 0.000000 
